<mxfile host="app.diagrams.net" modified="2024-04-21T15:22:52.114Z" agent="Mozilla/5.0 (Windows NT 10.0; Win64; x64) AppleWebKit/537.36 (KHTML, like Gecko) Chrome/123.0.0.0 Safari/537.36" etag="YsaR248QFkly4mNUR_2a" version="24.2.7" type="github">
  <diagram name="PÃ¡gina-1" id="kRPLYJsi6rrupMbsf0CN">
    <mxGraphModel dx="1994" dy="619" grid="1" gridSize="10" guides="1" tooltips="1" connect="1" arrows="1" fold="1" page="1" pageScale="1" pageWidth="827" pageHeight="1169" math="0" shadow="0">
      <root>
        <mxCell id="0" />
        <mxCell id="1" parent="0" />
        <mxCell id="twVeODWQmOb_BkFFTKhD-1" value="Sistema" style="shape=umlLifeline;perimeter=lifelinePerimeter;whiteSpace=wrap;html=1;container=1;dropTarget=0;collapsible=0;recursiveResize=0;outlineConnect=0;portConstraint=eastwest;newEdgeStyle={&quot;curved&quot;:0,&quot;rounded&quot;:0};" vertex="1" parent="1">
          <mxGeometry x="140" y="60" width="100" height="480" as="geometry" />
        </mxCell>
        <mxCell id="twVeODWQmOb_BkFFTKhD-2" value="" style="html=1;points=[[0,0,0,0,5],[0,1,0,0,-5],[1,0,0,0,5],[1,1,0,0,-5]];perimeter=orthogonalPerimeter;outlineConnect=0;targetShapes=umlLifeline;portConstraint=eastwest;newEdgeStyle={&quot;curved&quot;:0,&quot;rounded&quot;:0};" vertex="1" parent="twVeODWQmOb_BkFFTKhD-1">
          <mxGeometry x="45" y="80" width="10" height="230" as="geometry" />
        </mxCell>
        <mxCell id="twVeODWQmOb_BkFFTKhD-4" style="edgeStyle=orthogonalEdgeStyle;rounded=0;orthogonalLoop=1;jettySize=auto;html=1;curved=0;exitX=1;exitY=0;exitDx=0;exitDy=5;exitPerimeter=0;" edge="1" parent="twVeODWQmOb_BkFFTKhD-1" source="twVeODWQmOb_BkFFTKhD-2" target="twVeODWQmOb_BkFFTKhD-2">
          <mxGeometry relative="1" as="geometry">
            <Array as="points">
              <mxPoint x="55" y="120" />
              <mxPoint x="100" y="120" />
              <mxPoint x="100" y="150" />
            </Array>
          </mxGeometry>
        </mxCell>
        <mxCell id="twVeODWQmOb_BkFFTKhD-3" value="criarComentario(idBlog, idNota, texto, autor, dataCriacao)" style="html=1;verticalAlign=bottom;startArrow=oval;startFill=1;endArrow=block;startSize=8;curved=0;rounded=0;" edge="1" parent="1" target="twVeODWQmOb_BkFFTKhD-1">
          <mxGeometry x="0.0319" width="60" relative="1" as="geometry">
            <mxPoint x="-140" y="160" as="sourcePoint" />
            <mxPoint x="130" y="160" as="targetPoint" />
            <mxPoint as="offset" />
          </mxGeometry>
        </mxCell>
        <mxCell id="twVeODWQmOb_BkFFTKhD-5" value="blog = BuscarBlogPorId(IdBlog)" style="text;html=1;align=center;verticalAlign=middle;resizable=0;points=[];autosize=1;strokeColor=none;fillColor=none;" vertex="1" parent="1">
          <mxGeometry x="190" y="160" width="190" height="30" as="geometry" />
        </mxCell>
        <mxCell id="twVeODWQmOb_BkFFTKhD-6" value="crarNovoComentario(texto,idNota,dataCriacao, autor)" style="html=1;verticalAlign=bottom;endArrow=block;curved=0;rounded=0;" edge="1" parent="1" source="twVeODWQmOb_BkFFTKhD-2" target="twVeODWQmOb_BkFFTKhD-10">
          <mxGeometry width="80" relative="1" as="geometry">
            <mxPoint x="200" y="240" as="sourcePoint" />
            <mxPoint x="430" y="220" as="targetPoint" />
            <Array as="points">
              <mxPoint x="370" y="220" />
            </Array>
          </mxGeometry>
        </mxCell>
        <mxCell id="twVeODWQmOb_BkFFTKhD-7" value="Blog" style="shape=umlLifeline;perimeter=lifelinePerimeter;whiteSpace=wrap;html=1;container=1;dropTarget=0;collapsible=0;recursiveResize=0;outlineConnect=0;portConstraint=eastwest;newEdgeStyle={&quot;curved&quot;:0,&quot;rounded&quot;:0};" vertex="1" parent="1">
          <mxGeometry x="520" y="60" width="100" height="480" as="geometry" />
        </mxCell>
        <mxCell id="twVeODWQmOb_BkFFTKhD-10" value="" style="html=1;points=[[0,0,0,0,5],[0,1,0,0,-5],[1,0,0,0,5],[1,1,0,0,-5]];perimeter=orthogonalPerimeter;outlineConnect=0;targetShapes=umlLifeline;portConstraint=eastwest;newEdgeStyle={&quot;curved&quot;:0,&quot;rounded&quot;:0};" vertex="1" parent="twVeODWQmOb_BkFFTKhD-7">
          <mxGeometry x="45" y="150" width="10" height="160" as="geometry" />
        </mxCell>
        <mxCell id="twVeODWQmOb_BkFFTKhD-11" style="edgeStyle=orthogonalEdgeStyle;rounded=0;orthogonalLoop=1;jettySize=auto;html=1;curved=0;exitX=1;exitY=0;exitDx=0;exitDy=5;exitPerimeter=0;" edge="1" parent="twVeODWQmOb_BkFFTKhD-7" source="twVeODWQmOb_BkFFTKhD-10" target="twVeODWQmOb_BkFFTKhD-10">
          <mxGeometry relative="1" as="geometry">
            <Array as="points">
              <mxPoint x="55" y="180" />
              <mxPoint x="100" y="180" />
              <mxPoint x="100" y="210" />
            </Array>
          </mxGeometry>
        </mxCell>
        <mxCell id="twVeODWQmOb_BkFFTKhD-8" value="Nota" style="shape=umlLifeline;perimeter=lifelinePerimeter;whiteSpace=wrap;html=1;container=1;dropTarget=0;collapsible=0;recursiveResize=0;outlineConnect=0;portConstraint=eastwest;newEdgeStyle={&quot;curved&quot;:0,&quot;rounded&quot;:0};" vertex="1" parent="1">
          <mxGeometry x="800" y="60" width="110" height="480" as="geometry" />
        </mxCell>
        <mxCell id="twVeODWQmOb_BkFFTKhD-13" value="" style="html=1;points=[[0,0,0,0,5],[0,1,0,0,-5],[1,0,0,0,5],[1,1,0,0,-5]];perimeter=orthogonalPerimeter;outlineConnect=0;targetShapes=umlLifeline;portConstraint=eastwest;newEdgeStyle={&quot;curved&quot;:0,&quot;rounded&quot;:0};" vertex="1" parent="twVeODWQmOb_BkFFTKhD-8">
          <mxGeometry x="50" y="208" width="10" height="102" as="geometry" />
        </mxCell>
        <mxCell id="twVeODWQmOb_BkFFTKhD-21" style="edgeStyle=orthogonalEdgeStyle;rounded=0;orthogonalLoop=1;jettySize=auto;html=1;curved=0;exitX=1;exitY=0;exitDx=0;exitDy=5;exitPerimeter=0;" edge="1" parent="twVeODWQmOb_BkFFTKhD-8" source="twVeODWQmOb_BkFFTKhD-13" target="twVeODWQmOb_BkFFTKhD-13">
          <mxGeometry relative="1" as="geometry">
            <Array as="points">
              <mxPoint x="60" y="280" />
              <mxPoint x="100" y="280" />
              <mxPoint x="100" y="300" />
            </Array>
          </mxGeometry>
        </mxCell>
        <mxCell id="twVeODWQmOb_BkFFTKhD-12" value="nota = buscarNotaPorId(idNota)" style="text;html=1;align=center;verticalAlign=middle;resizable=0;points=[];autosize=1;strokeColor=none;fillColor=none;" vertex="1" parent="1">
          <mxGeometry x="570" y="220" width="190" height="30" as="geometry" />
        </mxCell>
        <mxCell id="twVeODWQmOb_BkFFTKhD-14" value="criarNovoComentario(texto, dataCriacao, autor)" style="html=1;verticalAlign=bottom;endArrow=block;curved=0;rounded=0;" edge="1" parent="1" source="twVeODWQmOb_BkFFTKhD-10" target="twVeODWQmOb_BkFFTKhD-13">
          <mxGeometry width="80" relative="1" as="geometry">
            <mxPoint x="580" y="310" as="sourcePoint" />
            <mxPoint x="660" y="310" as="targetPoint" />
          </mxGeometry>
        </mxCell>
        <mxCell id="twVeODWQmOb_BkFFTKhD-15" value="novoComentario = New Comentario (texto, dataCriacao, autor)" style="html=1;verticalAlign=bottom;endArrow=block;curved=0;rounded=0;entryX=0;entryY=0.5;entryDx=0;entryDy=0;" edge="1" parent="1" source="twVeODWQmOb_BkFFTKhD-13" target="twVeODWQmOb_BkFFTKhD-16">
          <mxGeometry width="80" relative="1" as="geometry">
            <mxPoint x="860" y="310" as="sourcePoint" />
            <mxPoint x="1140" y="320" as="targetPoint" />
          </mxGeometry>
        </mxCell>
        <mxCell id="twVeODWQmOb_BkFFTKhD-16" value="novoComentario = Comentario" style="html=1;whiteSpace=wrap;" vertex="1" parent="1">
          <mxGeometry x="1180" y="280" width="200" height="80" as="geometry" />
        </mxCell>
        <mxCell id="twVeODWQmOb_BkFFTKhD-20" value="inserirComentario(novoComentario)" style="text;html=1;align=center;verticalAlign=middle;resizable=0;points=[];autosize=1;strokeColor=none;fillColor=none;" vertex="1" parent="1">
          <mxGeometry x="850" y="318" width="210" height="30" as="geometry" />
        </mxCell>
      </root>
    </mxGraphModel>
  </diagram>
</mxfile>
